<?xml version="1.0" encoding="utf-8"?>
<!-- Generator: Adobe Illustrator 18.1.0, SVG Export Plug-In . SVG Version: 6.00 Build 0)  -->
<!DOCTYPE svg PUBLIC "-//W3C//DTD SVG 1.1//EN" "http://www.w3.org/Graphics/SVG/1.1/DTD/svg11.dtd">
<svg version="1.1" id="Calque_1" xmlns="http://www.w3.org/2000/svg" xmlns:xlink="http://www.w3.org/1999/xlink" x="0px" y="0px"
	 viewBox="0 0 177 35" enable-background="new 0 0 177 35" xml:space="preserve">
<g>
	<path fill="#ED6E25" d="M60.7,34.8v-2c-1.3,1.6-2.8,2.2-5,2.2c-0.6,0-1.2-0.1-1.8-0.2s-1.1-0.3-1.7-0.6C46,31,46,22.3,49.5,16.9
		c0.7-0.9,1.6-1.6,2.7-2.2c0.5-0.3,1.1-0.5,1.7-0.6c0.6-0.1,1.2-0.2,1.8-0.2c2.2,0,3.6,0.6,5,2.2c0.4-0.9,1.3-1.8,2.7-1.8
		c1.7,0,2.9,1.3,2.9,3v17.6h-5.7C60.7,34.9,60.7,34.8,60.7,34.8z M52.6,24.6c-0.1,2.3,1.2,4.6,3.9,4.8c0.6,0,1.2-0.1,1.7-0.4
		c1.5-0.7,2.3-2.5,2.3-4.6s-0.8-3.8-2.3-4.6c-0.5-0.2-1.1-0.4-1.7-0.4C53.6,19.7,52.5,22.3,52.6,24.6L52.6,24.6z"/>
	<path fill="#ED6E25" d="M68.9,34.8V17.2c0-1.7,1.2-3,2.9-3c1.5,0,2.5,1,2.9,1.8c1-1.1,2.4-2.2,4.1-2.2c1.5,0,2.9,1.2,2.9,3
		c0,2-1.5,2.5-3.6,3.1c-2.5,0.7-3.3,1.4-3.3,4.4v10.3h-5.9V34.8z"/>
	<path fill="#ED6E25" d="M107.3,34.8V22.3c0-1.8-1-3.6-2.9-3.6c-1.9,0-2.9,1.7-2.9,3.6v12.5h-5.9V22.3c0-1.8-1-3.6-2.9-3.6
		c-1.9,0-2.9,1.7-2.9,3.6v12.5h-5.7V17.2c0-1.7,1.2-3,2.9-3c1.5,0,2.5,1,2.9,1.8c0.9-1.4,2.9-2.2,5-2.2c1.7,0,4,0.6,5.4,2.4
		c1.4-1,3.1-2.4,5.7-2.4c4.1,0,7.2,2.1,7.2,6.9v14.1L107.3,34.8L107.3,34.8z"/>
	<path fill="#ED6E25" d="M118.5,5.5c1.9,0,3.4,1.5,3.4,3.4s-1.5,3.4-3.4,3.4c-1.9,0-3.4-1.5-3.4-3.4S116.7,5.5,118.5,5.5L118.5,5.5z
		 M115.7,34.8V17.2c0-1.7,1.2-3,2.9-3c1.7,0,2.9,1.3,2.9,3v17.6H115.7z"/>
	<path fill="#ED6E25" d="M157,24.3c0,5.9-4,10.7-9.9,10.7c-5.9,0-9.9-4.7-9.9-10.7s4-10.7,9.9-10.7C153.1,13.8,157,18.5,157,24.3
		L157,24.3z M143,24.3c0,2.7,1.4,5,4,5s4-2.2,4-5c0-2.7-1.4-5-4-5C144.6,19.5,143,21.7,143,24.3L143,24.3z"/>
	<path fill="#ED6E25" d="M159,34.8V17.2c0-1.7,1.2-3,2.9-3c1.5,0,2.5,1,2.9,1.8c0.9-1.4,2.5-2.2,5-2.2c4.1,0,7.2,2.1,7.2,6.9v14.1
		h-5.8V22.3c0-2-1.2-3.6-3.2-3.6c-2,0-3.2,1.5-3.2,3.6v12.5L159,34.8L159,34.8z"/>
	<path fill="#ED6E25" d="M133.8,14.4h-1.6v-3.9c0-1.7-1.2-3-2.9-3c-1.7,0-2.9,1.3-2.9,3v4c-1.2,0.3-2,1.1-2,2.6c0,1.5,0.8,2.3,2,2.6
		v15h5.9V19.9h1.6c1.8,0,3-0.8,3-2.7C137,15.2,135.6,14.4,133.8,14.4z"/>
	<g>
		<path fill="#ED6E25" d="M16.5,18.7c-1.9,0-2.9,1.7-2.9,3.6v12.5h5.8V22.2C19.5,20.4,18.5,18.7,16.5,18.7z"/>
		<path fill="#ED6E25" d="M28.3,18.7c-1.9,0-2.9,1.7-2.9,3.6v12.5h5.9V22.2C31.2,20.4,30.2,18.7,28.3,18.7z"/>
		<path fill="#ED6E25" d="M44.1,13.1c-0.9,0.2-1.8,0.4-2.7,0.4c-0.5,0-0.9-0.1-1.4-0.2c-1.4-0.3-2.6-1-3.6-2.1
			c-0.4-0.5-0.8-1-1.1-1.5c-2.4,0.7-5.3,0-7-2c-1-1.2-1.6-2.6-1.7-4.2c-1.6,0.9-3.6,0.6-4.9-0.8c-0.1-0.2-0.3-0.3-0.4-0.5
			c-1.4,1.4-3.3,2.3-5.5,2.3c-3,0-5.7-1.8-6.9-4.5c-3.2,0.4-6,2.6-7.2,5.5C1.4,6,1.2,6.6,1.1,7.2C-0.2,16.4-0.5,25.6,1,34.7h7.1
			V17.1c0-1.7,1.2-3,2.9-3c1.5,0,2.5,1,2.9,1.8c0.9-1.4,2.9-2.2,5-2.2c1.7,0,4,0.6,5.4,2.4c1.4-1,3.1-2.4,5.7-2.4
			c4.1,0,7.3,2.1,7.3,6.9v14.1h6.9C44.8,27.4,44.8,20.3,44.1,13.1z"/>
	</g>
</g>
</svg>
